<svg width="1582" height="697" xmlns="http://www.w3.org/2000/svg" xmlns:xlink="http://www.w3.org/1999/xlink" xml:space="preserve" overflow="hidden"><g transform="translate(-1443 -1530)"><g><text fill="#306997" fill-opacity="1" font-family="Futura,Futura_MSFontService,sans-serif" font-style="italic" font-variant="normal" font-weight="500" font-stretch="normal" font-size="330" text-anchor="start" direction="ltr" writing-mode="lr-tb" unicode-bidi="normal" text-decoration="none" transform="matrix(1 0 0 1 1646.12 1947)">logistics</text><path d="M2492 1722.5C2492 1711.18 2501.4 1702 2513 1702 2524.6 1702 2534 1711.18 2534 1722.5 2534 1733.82 2524.6 1743 2513 1743 2501.4 1743 2492 1733.82 2492 1722.5Z" fill="#FF0000" fill-rule="evenodd" fill-opacity="1"/><path d="M2170 1722.5C2170 1711.18 2179.4 1702 2191 1702 2202.6 1702 2212 1711.18 2212 1722.5 2212 1733.82 2202.6 1743 2191 1743 2179.4 1743 2170 1733.82 2170 1722.5Z" fill="#0000FF" fill-rule="evenodd" fill-opacity="1"/></g></g></svg>